<svg xmlns="http://www.w3.org/2000/svg" xmlns:xlink="http://www.w3.org/1999/xlink" width="500" zoomAndPan="magnify" viewBox="0 0 375 374.999991" height="500" preserveAspectRatio="xMidYMid meet" version="1.0"><defs><filter x="0%" y="0%" width="100%" height="100%" id="295d5ec6f7"><feColorMatrix values="0 0 0 0 1 0 0 0 0 1 0 0 0 0 1 0 0 0 1 0" color-interpolation-filters="sRGB"/></filter><g/><clipPath id="95956edaed"><path d="M 95.316406 117.707031 L 272.316406 117.707031 L 272.316406 238.457031 L 95.316406 238.457031 Z M 95.316406 117.707031 " clip-rule="nonzero"/></clipPath><clipPath id="c99f4e70e6"><path d="M 216 159 L 263.390625 159 L 263.390625 213 L 216 213 Z M 216 159 " clip-rule="nonzero"/></clipPath><clipPath id="97ba28f344"><path d="M 225 144.070312 L 263.390625 144.070312 L 263.390625 179 L 225 179 Z M 225 144.070312 " clip-rule="nonzero"/></clipPath><clipPath id="47c065c280"><path d="M 215 144.070312 L 263 144.070312 L 263 200 L 215 200 Z M 215 144.070312 " clip-rule="nonzero"/></clipPath><clipPath id="55b4ff8f6b"><path d="M 200 144.070312 L 255 144.070312 L 255 213 L 200 213 Z M 200 144.070312 " clip-rule="nonzero"/></clipPath><clipPath id="56701055c5"><path d="M 191 147 L 238 147 L 238 216.070312 L 191 216.070312 Z M 191 147 " clip-rule="nonzero"/></clipPath><mask id="9a708dda93"><g filter="url(#295d5ec6f7)"><rect x="-37.5" width="450" fill="#000000" y="-37.499999" height="449.999989" fill-opacity="0.3765"/></g></mask><clipPath id="56013bda83"><path d="M 21 0 L 24 0 L 24 24 L 21 24 Z M 21 0 " clip-rule="nonzero"/></clipPath><clipPath id="a04a6d99f8"><path d="M 0.121094 0 L 24 0 L 24 31.199219 L 0.121094 31.199219 Z M 0.121094 0 " clip-rule="nonzero"/></clipPath><clipPath id="7875d8e305"><rect x="0" width="24" y="0" height="32"/></clipPath></defs><rect x="-37.5" width="450" fill="#ffffff" y="-37.499999" height="449.999989" fill-opacity="1"/><rect x="-37.5" width="450" fill="#ffffff" y="-37.499999" height="449.999989" fill-opacity="1"/><rect x="-37.5" width="450" fill="#000000" y="-37.499999" height="449.999989" fill-opacity="1"/><g clip-path="url(#95956edaed)"><path fill="#ffffff" d="M 180.4375 138.320312 L 179.730469 138.671875 L 156.84375 169.910156 L 120.550781 120.175781 L 95.398438 120.175781 L 95.398438 235.808594 L 117.222656 235.808594 L 117.222656 151.804688 L 154.226562 202.101562 L 158.507812 202.101562 L 167.632812 190.03125 C 171.773438 215.832031 190.519531 238.457031 228.125 238.457031 C 244.855469 238.457031 260.28125 233.019531 272.238281 221.300781 L 257.273438 206.265625 C 249.667969 213.855469 238.277344 217.984375 228.089844 217.984375 C 199.507812 217.984375 188.363281 197.972656 188.117188 178.804688 C 188.007812 159.390625 200.109375 138.566406 228.089844 138.566406 C 238.277344 138.566406 248.5 141.992188 256.070312 149.472656 L 270.714844 135.355469 C 258.867188 123.636719 243.9375 117.707031 228.160156 117.707031 C 206.296875 117.707031 190.519531 126 180.4375 138.320312 Z M 180.4375 138.320312 " fill-opacity="1" fill-rule="nonzero"/></g><g clip-path="url(#c99f4e70e6)"><path fill="#800000" d="M 225.164062 212.128906 C 223.128906 209.78125 221.417969 208.066406 216.097656 203.53125 C 218.859375 194.757812 228.210938 187.09375 242.398438 177.570312 C 256.214844 168.300781 260.011719 163.777344 257.449219 159.636719 C 257.886719 160.371094 258.503906 161.332031 258.914062 162.082031 C 260.566406 165.390625 260.628906 165.519531 261.351562 167.554688 C 262.457031 171.152344 262.5 171.292969 262.875 173.425781 C 263.074219 174.960938 263.296875 177.011719 263.386719 178.558594 C 262.984375 184.488281 256.707031 188.449219 243.691406 196.132812 C 235.457031 200.996094 226.121094 206.507812 225.164062 212.128906 " fill-opacity="1" fill-rule="nonzero"/></g><path fill="#800000" d="M 226.820312 214.871094 C 227.3125 211.59375 234.8125 207.746094 244.308594 202.875 C 255.902344 196.929688 260.308594 194.085938 261.945312 189.945312 C 261.582031 191.035156 261.101562 192.492188 260.679688 193.5625 C 259.148438 196.921875 259.089844 197.054688 257.96875 198.890625 L 257.40625 199.769531 C 254.863281 203.011719 250.65625 205.03125 238.453125 209.851562 C 234.164062 211.542969 229.300781 213.464844 226.820312 214.871094 " fill-opacity="1" fill-rule="nonzero"/><path fill="#800000" d="M 226.820312 214.871094 C 245.828125 209.117188 250.34375 207.75 253.574219 204.644531 C 252.550781 205.667969 251.144531 207 250.054688 207.953125 C 247.59375 209.84375 247.214844 210.132812 244.832031 211.550781 L 243.179688 212.433594 C 240.367188 213.640625 234.863281 214.460938 226.820312 214.871094 " fill-opacity="1" fill-rule="nonzero"/><g clip-path="url(#97ba28f344)"><path fill="#f4042e" d="M 263.386719 178.554688 C 263.28125 177.011719 263.089844 174.957031 262.875 173.425781 C 262.070312 169.65625 262.054688 169.582031 261.351562 167.554688 C 259.992188 164.105469 259.9375 163.972656 258.914062 162.082031 C 258.476562 161.347656 257.914062 160.351562 257.449219 159.636719 C 255.03125 156.515625 251.308594 154.683594 242.039062 151.089844 C 236.394531 148.902344 229.996094 146.417969 226.691406 144.460938 C 221.296875 149.105469 237.265625 158.4375 246.804688 164.015625 C 258.070312 170.601562 262.734375 173.324219 263.386719 178.558594 " fill-opacity="1" fill-rule="nonzero"/></g><g clip-path="url(#47c065c280)"><path fill="#f4042e" d="M 257.40625 199.769531 L 257.96875 198.890625 C 259.78125 195.683594 259.851562 195.558594 260.679688 193.5625 C 261.074219 192.484375 261.609375 191.042969 261.945312 189.945312 C 262.882812 184.753906 258.296875 181.179688 245.925781 173.019531 C 221.371094 156.824219 214.898438 147.214844 226.691406 144.460938 C 216.9375 145.554688 205.03125 152.910156 229.785156 172.921875 C 237.945312 179.519531 247.15625 184.75 254.730469 192.109375 C 259.1875 196.441406 258.242188 198.207031 257.40625 199.769531 " fill-opacity="1" fill-rule="nonzero"/></g><g clip-path="url(#55b4ff8f6b)"><path fill="#f4042e" d="M 220.007812 144.289062 C 210.988281 145.933594 176.382812 162.0625 229.699219 199.085938 C 246.226562 210.5625 246.226562 210.5625 243.179688 212.433594 L 244.832031 211.550781 C 247.335938 210.015625 247.855469 209.695312 250.054688 207.953125 C 251.140625 206.992188 252.554688 205.671875 253.574219 204.644531 C 256.542969 200.773438 252.296875 197.601562 238.238281 187.085938 C 183.789062 146.367188 226.238281 144.460938 226.691406 144.460938 C 224.398438 144.15625 222.164062 144.105469 220.007812 144.289062 " fill-opacity="1" fill-rule="nonzero"/></g><g clip-path="url(#56701055c5)"><path fill="#a4011e" d="M 208.679688 147.785156 C 206.257812 149.269531 204.660156 150.253906 201.890625 152.746094 C 199.441406 155.179688 199.242188 155.378906 197.800781 157.195312 C 195.714844 160.101562 195.589844 160.273438 194.53125 162.195312 C 194.132812 163 193.574219 164.058594 193.210938 164.878906 C 188.570312 176.804688 192.832031 186.324219 197.226562 192.207031 C 200.195312 196.183594 207.152344 205.496094 229.703125 215.226562 C 231.277344 215.90625 231.28125 215.90625 231.410156 216.027344 L 232.101562 215.933594 C 233.429688 215.71875 233.480469 215.710938 234.199219 215.5625 C 234.917969 215.398438 235.871094 215.167969 236.582031 214.984375 C 236.855469 214.871094 237.144531 214.542969 237.265625 214.273438 C 236.742188 213.308594 235.800781 212.652344 230.078125 209.269531 C 220.679688 203.714844 203.183594 193.371094 197.371094 179.636719 C 189.863281 161.886719 201.464844 151.929688 209.050781 147.578125 C 208.925781 147.648438 208.800781 147.714844 208.679688 147.785156 " fill-opacity="1" fill-rule="nonzero"/></g><g fill="#ffffff" fill-opacity="1"><g transform="translate(92.70805, 275.048205)"><g><path d="M 6.4375 0.09375 C 5.976562 0.03125 5.082031 0 3.75 0 L 2.578125 0 L 2.578125 -19.453125 C 3.203125 -19.410156 3.890625 -19.390625 4.640625 -19.390625 C 5.390625 -19.390625 5.914062 -19.425781 6.21875 -19.5 L 11.125 -11.1875 L 15.828125 -19.5 C 16.140625 -19.425781 16.734375 -19.390625 17.609375 -19.390625 C 18.484375 -19.390625 19.234375 -19.410156 19.859375 -19.453125 L 19.859375 0 L 18.6875 0 C 17.351562 0 16.457031 0.03125 16 0.09375 L 16 -12.96875 L 11.21875 -4.453125 L 6.4375 -12.296875 Z M 6.4375 0.09375 "/></g></g></g><g fill="#ffffff" fill-opacity="1"><g transform="translate(115.140929, 275.048205)"><g><path d="M 1.421875 -7.5 C 1.421875 -8.632812 1.613281 -9.6875 2 -10.65625 C 2.382812 -11.625 2.929688 -12.472656 3.640625 -13.203125 C 5.160156 -14.753906 7.144531 -15.53125 9.59375 -15.53125 C 11.664062 -15.53125 13.328125 -14.84375 14.578125 -13.46875 C 15.816406 -12.144531 16.4375 -10.484375 16.4375 -8.484375 C 16.4375 -7.710938 16.375 -7.1875 16.25 -6.90625 C 15.28125 -6.632812 13.304688 -6.5 10.328125 -6.5 L 5.1875 -6.5 C 5.4375 -5.457031 6.023438 -4.644531 6.953125 -4.0625 C 7.878906 -3.488281 9.082031 -3.203125 10.5625 -3.203125 C 12.101562 -3.203125 13.425781 -3.476562 14.53125 -4.03125 C 14.820312 -4.175781 15.039062 -4.316406 15.1875 -4.453125 C 15.164062 -4.035156 15.144531 -3.613281 15.125 -3.1875 L 14.953125 -0.921875 C 14.210938 -0.410156 13.019531 -0.0625 11.375 0.125 C 10.882812 0.1875 10.414062 0.21875 9.96875 0.21875 C 7.5 0.21875 5.457031 -0.5 3.84375 -1.9375 C 2.226562 -3.382812 1.421875 -5.238281 1.421875 -7.5 Z M 12.546875 -9.328125 C 12.148438 -11.421875 11.015625 -12.46875 9.140625 -12.46875 C 7.660156 -12.46875 6.539062 -11.832031 5.78125 -10.5625 C 5.539062 -10.164062 5.359375 -9.734375 5.234375 -9.265625 C 5.460938 -9.265625 5.75 -9.257812 6.09375 -9.25 L 7.171875 -9.25 C 7.535156 -9.238281 7.878906 -9.234375 8.203125 -9.234375 L 9.046875 -9.234375 C 9.535156 -9.234375 10.019531 -9.238281 10.5 -9.25 L 11.6875 -9.28125 C 12.007812 -9.289062 12.296875 -9.304688 12.546875 -9.328125 Z M 12.546875 -9.328125 "/></g></g></g><g fill="#ffffff" fill-opacity="1"><g transform="translate(132.588724, 275.048205)"><g><path d="M 5.984375 -1.859375 C 5.984375 -1.003906 6.019531 -0.382812 6.09375 0 L 2.4375 0 L 2.4375 -15.234375 L 5.984375 -15.234375 L 5.984375 -13.9375 C 7.265625 -15 8.632812 -15.53125 10.09375 -15.53125 C 11.6875 -15.53125 12.957031 -14.988281 13.90625 -13.90625 C 14.863281 -12.820312 15.34375 -11.394531 15.34375 -9.625 L 15.34375 -3.8125 C 15.34375 -2.175781 15.363281 -1.191406 15.40625 -0.859375 C 15.457031 -0.523438 15.523438 -0.3125 15.609375 -0.21875 C 15.691406 -0.125 15.757812 -0.0351562 15.8125 0.046875 L 15.796875 0.109375 C 15.003906 0.0351562 14.425781 0 14.0625 0 L 13.046875 0 C 12.734375 0 12.316406 0.015625 11.796875 0.046875 L 11.796875 -7.90625 C 11.796875 -10.75 10.929688 -12.171875 9.203125 -12.171875 C 7.921875 -12.171875 6.847656 -11.507812 5.984375 -10.1875 Z M 5.984375 -1.859375 "/></g></g></g><g fill="#ffffff" fill-opacity="1"><g transform="translate(150.036519, 275.048205)"><g><path d="M 8.90625 -3.203125 C 10.15625 -3.203125 11.015625 -3.53125 11.484375 -4.1875 L 11.609375 -4.1875 L 11.65625 -0.796875 C 11.175781 -0.328125 10.289062 -0.015625 9 0.140625 C 8.644531 0.191406 8.207031 0.21875 7.6875 0.21875 C 7.164062 0.21875 6.601562 0.125 6 -0.0625 C 5.394531 -0.257812 4.878906 -0.578125 4.453125 -1.015625 C 3.566406 -1.921875 3.125 -3.335938 3.125 -5.265625 L 3.125 -11.875 L 0.921875 -11.875 C 0.910156 -12.164062 0.90625 -12.457031 0.90625 -12.75 L 0.90625 -14.984375 C 0.90625 -15.148438 0.910156 -15.234375 0.921875 -15.234375 L 3.125 -15.234375 L 3.125 -19.390625 L 6.6875 -19.390625 L 6.6875 -15.234375 L 10.703125 -15.234375 L 10.703125 -11.875 L 6.6875 -11.875 L 6.6875 -5.9375 C 6.6875 -4.40625 7.109375 -3.535156 7.953125 -3.328125 C 8.234375 -3.242188 8.550781 -3.203125 8.90625 -3.203125 Z M 8.90625 -3.203125 "/></g></g></g><g fill="#ffffff" fill-opacity="1"><g transform="translate(162.499231, 275.048205)"><g><path d="M 1.03125 -7.53125 C 1.03125 -8.601562 1.210938 -9.628906 1.578125 -10.609375 C 1.941406 -11.585938 2.46875 -12.441406 3.15625 -13.171875 C 4.632812 -14.742188 6.5625 -15.53125 8.9375 -15.53125 C 11.300781 -15.53125 13.175781 -14.785156 14.5625 -13.296875 C 15.894531 -11.878906 16.5625 -10.035156 16.5625 -7.765625 C 16.5625 -5.503906 15.875 -3.628906 14.5 -2.140625 C 13.050781 -0.566406 11.132812 0.21875 8.75 0.21875 C 6.28125 0.21875 4.34375 -0.550781 2.9375 -2.09375 C 1.664062 -3.507812 1.03125 -5.320312 1.03125 -7.53125 Z M 4.578125 -7.625 C 4.578125 -7.007812 4.675781 -6.414062 4.875 -5.84375 C 5.082031 -5.269531 5.378906 -4.78125 5.765625 -4.375 C 6.566406 -3.488281 7.625 -3.046875 8.9375 -3.046875 C 10.15625 -3.046875 11.113281 -3.476562 11.8125 -4.34375 C 12.488281 -5.175781 12.828125 -6.265625 12.828125 -7.609375 C 12.828125 -8.972656 12.476562 -10.070312 11.78125 -10.90625 C 11.03125 -11.800781 10.003906 -12.25 8.703125 -12.25 C 7.378906 -12.25 6.34375 -11.769531 5.59375 -10.8125 C 4.914062 -9.9375 4.578125 -8.875 4.578125 -7.625 Z M 4.578125 -7.625 "/></g></g></g><g fill="#ffffff" fill-opacity="1"><g transform="translate(179.947027, 275.048205)"><g><path d="M 5.578125 -1.640625 C 5.578125 -0.796875 5.597656 -0.25 5.640625 0 L 2.015625 0 L 2.015625 -15.234375 L 5.578125 -15.234375 L 5.578125 -14.109375 C 6.410156 -15.054688 7.28125 -15.53125 8.1875 -15.53125 C 9.09375 -15.53125 9.8125 -15.414062 10.34375 -15.1875 L 10.078125 -11.265625 L 10.015625 -11.21875 C 9.671875 -11.820312 8.96875 -12.125 7.90625 -12.125 C 7.5 -12.125 7.082031 -11.984375 6.65625 -11.703125 C 6.226562 -11.429688 5.867188 -11.066406 5.578125 -10.609375 Z M 5.578125 -1.640625 "/></g></g></g><g fill="#ffffff" fill-opacity="1"><g transform="translate(189.917194, 275.048205)"><g/></g></g><g fill="#ffffff" fill-opacity="1"><g transform="translate(199.814483, 275.048205)"><g><path d="M 11.203125 -19.75 C 13.015625 -19.75 14.5625 -19.4375 15.84375 -18.8125 L 15.84375 -14.34375 L 15.8125 -14.3125 C 15.269531 -15.15625 14.125 -15.710938 12.375 -15.984375 C 11.863281 -16.066406 11.210938 -16.109375 10.421875 -16.109375 C 9.640625 -16.109375 8.867188 -15.957031 8.109375 -15.65625 C 7.347656 -15.363281 6.722656 -14.945312 6.234375 -14.40625 C 5.296875 -13.34375 4.828125 -11.832031 4.828125 -9.875 C 4.828125 -7.582031 5.425781 -5.878906 6.625 -4.765625 C 7.613281 -3.835938 8.925781 -3.375 10.5625 -3.375 C 12.40625 -3.375 13.898438 -3.765625 15.046875 -4.546875 C 15.460938 -4.828125 15.816406 -5.175781 16.109375 -5.59375 L 16.15625 -5.5625 L 16.15625 -1.484375 C 14.664062 -0.253906 12.660156 0.359375 10.140625 0.359375 C 7.179688 0.359375 4.859375 -0.582031 3.171875 -2.46875 C 1.566406 -4.257812 0.765625 -6.640625 0.765625 -9.609375 C 0.765625 -12.742188 1.644531 -15.21875 3.40625 -17.03125 C 5.195312 -18.84375 7.796875 -19.75 11.203125 -19.75 Z M 11.203125 -19.75 "/></g></g></g><g fill="#ffffff" fill-opacity="1"><g transform="translate(217.131095, 275.048205)"><g><path d="M 0.75 5.078125 L 1.703125 4.296875 C 3.148438 3.117188 4.351562 1.382812 5.3125 -0.90625 L 5.984375 -2.515625 L 0.390625 -15.234375 L 4.46875 -15.234375 L 7.96875 -6.421875 L 11.21875 -15.234375 L 15.421875 -15.234375 C 14.921875 -14.535156 14.304688 -13.234375 13.578125 -11.328125 L 11.390625 -5.921875 C 8.460938 0.960938 6.164062 5.066406 4.5 6.390625 Z M 0.75 5.078125 "/></g></g></g><g fill="#ffffff" fill-opacity="1"><g transform="translate(232.071773, 275.048205)"><g><path d="M 14.0625 -1.421875 C 12.96875 -0.328125 11.257812 0.21875 8.9375 0.21875 C 6.6875 0.21875 4.84375 -0.46875 3.40625 -1.84375 C 1.957031 -3.226562 1.234375 -5.070312 1.234375 -7.375 C 1.234375 -9.71875 1.945312 -11.644531 3.375 -13.15625 C 4.894531 -14.738281 6.925781 -15.53125 9.46875 -15.53125 C 11.257812 -15.53125 12.765625 -15.132812 13.984375 -14.34375 L 13.40625 -10.609375 L 13.296875 -10.625 C 12.828125 -11.1875 12.335938 -11.554688 11.828125 -11.734375 C 10.992188 -12.023438 10.15625 -12.171875 9.3125 -12.171875 C 8.476562 -12.171875 7.820312 -12.0625 7.34375 -11.84375 C 6.875 -11.632812 6.46875 -11.34375 6.125 -10.96875 C 5.445312 -10.1875 5.109375 -9.15625 5.109375 -7.875 C 5.109375 -5.601562 5.894531 -4.113281 7.46875 -3.40625 C 8.007812 -3.175781 8.582031 -3.0625 9.1875 -3.0625 C 9.800781 -3.0625 10.332031 -3.113281 10.78125 -3.21875 C 11.226562 -3.320312 11.640625 -3.46875 12.015625 -3.65625 C 12.796875 -4.050781 13.332031 -4.503906 13.625 -5.015625 L 13.71875 -4.96875 Z M 14.0625 -1.421875 "/></g></g></g><g fill="#ffffff" fill-opacity="1"><g transform="translate(247.027031, 275.048205)"><g><path d="M 5.53125 -1.640625 C 5.53125 -0.796875 5.546875 -0.25 5.578125 0 L 1.875 0 L 1.875 -21.71875 L 5.53125 -21.71875 Z M 5.53125 -1.640625 "/></g></g></g><g fill="#ffffff" fill-opacity="1"><g transform="translate(254.504659, 275.048205)"><g><path d="M 1.421875 -7.5 C 1.421875 -8.632812 1.613281 -9.6875 2 -10.65625 C 2.382812 -11.625 2.929688 -12.472656 3.640625 -13.203125 C 5.160156 -14.753906 7.144531 -15.53125 9.59375 -15.53125 C 11.664062 -15.53125 13.328125 -14.84375 14.578125 -13.46875 C 15.816406 -12.144531 16.4375 -10.484375 16.4375 -8.484375 C 16.4375 -7.710938 16.375 -7.1875 16.25 -6.90625 C 15.28125 -6.632812 13.304688 -6.5 10.328125 -6.5 L 5.1875 -6.5 C 5.4375 -5.457031 6.023438 -4.644531 6.953125 -4.0625 C 7.878906 -3.488281 9.082031 -3.203125 10.5625 -3.203125 C 12.101562 -3.203125 13.425781 -3.476562 14.53125 -4.03125 C 14.820312 -4.175781 15.039062 -4.316406 15.1875 -4.453125 C 15.164062 -4.035156 15.144531 -3.613281 15.125 -3.1875 L 14.953125 -0.921875 C 14.210938 -0.410156 13.019531 -0.0625 11.375 0.125 C 10.882812 0.1875 10.414062 0.21875 9.96875 0.21875 C 7.5 0.21875 5.457031 -0.5 3.84375 -1.9375 C 2.226562 -3.382812 1.421875 -5.238281 1.421875 -7.5 Z M 12.546875 -9.328125 C 12.148438 -11.421875 11.015625 -12.46875 9.140625 -12.46875 C 7.660156 -12.46875 6.539062 -11.832031 5.78125 -10.5625 C 5.539062 -10.164062 5.359375 -9.734375 5.234375 -9.265625 C 5.460938 -9.265625 5.75 -9.257812 6.09375 -9.25 L 7.171875 -9.25 C 7.535156 -9.238281 7.878906 -9.234375 8.203125 -9.234375 L 9.046875 -9.234375 C 9.535156 -9.234375 10.019531 -9.238281 10.5 -9.25 L 11.6875 -9.28125 C 12.007812 -9.289062 12.296875 -9.304688 12.546875 -9.328125 Z M 12.546875 -9.328125 "/></g></g></g><g mask="url(#9a708dda93)"><g transform="matrix(1, 0, 0, 1, 351, 0)"><g clip-path="url(#7875d8e305)"><g clip-path="url(#56013bda83)"><path fill="#f4042e" d="M 63.871094 -127.316406 C 43.964844 -123.691406 -32.402344 -88.066406 85.261719 -6.316406 C 121.734375 19.027344 121.734375 19.027344 115.007812 23.160156 L 118.65625 21.207031 C 124.179688 17.820312 125.328125 17.113281 130.183594 13.269531 C 132.578125 11.144531 135.699219 8.234375 137.953125 5.960938 C 144.5 -2.585938 135.132812 -9.59375 104.105469 -32.8125 C -16.058594 -122.730469 77.617188 -126.933594 78.617188 -126.933594 C 73.566406 -127.613281 68.632812 -127.726562 63.871094 -127.316406 " fill-opacity="1" fill-rule="nonzero"/></g><g clip-path="url(#a04a6d99f8)"><path fill="#a4011e" d="M 38.871094 -119.597656 C 33.527344 -116.316406 30 -114.148438 23.890625 -108.640625 C 18.480469 -103.269531 18.039062 -102.828125 14.867188 -98.820312 C 10.253906 -92.402344 9.980469 -92.015625 7.644531 -87.777344 C 6.765625 -86 5.535156 -83.660156 4.730469 -81.847656 C -5.511719 -55.511719 3.898438 -34.5 13.597656 -21.507812 C 20.152344 -12.722656 35.5 7.84375 85.269531 29.324219 C 88.742188 30.824219 88.746094 30.828125 89.03125 31.097656 L 90.566406 30.886719 C 93.492188 30.410156 93.605469 30.394531 95.1875 30.066406 C 96.773438 29.710938 98.878906 29.199219 100.453125 28.789062 C 101.054688 28.542969 101.6875 27.816406 101.960938 27.226562 C 100.804688 25.09375 98.726562 23.648438 86.09375 16.171875 C 65.351562 3.902344 26.742188 -18.933594 13.917969 -49.257812 C -2.65625 -88.460938 22.945312 -110.441406 39.6875 -120.050781 C 39.414062 -119.902344 39.140625 -119.75 38.871094 -119.597656 " fill-opacity="1" fill-rule="nonzero"/></g></g></g></g></svg>